<?xml version="1.0" encoding="UTF-8"?><svg xmlns="http://www.w3.org/2000/svg" xmlns:xlink="http://www.w3.org/1999/xlink" viewBox="0 0 131.6 131.6"><defs><style>.e{fill:url(#d);}</style><linearGradient id="d" x1="0" y1="65.8" x2="131.6" y2="65.8" gradientTransform="matrix(1, 0, 0, 1, 0, 0)" gradientUnits="userSpaceOnUse"><stop offset="0" stop-color="#00a0e1" stop-opacity=".2"/><stop offset="1" stop-color="#00a2e2"/></linearGradient></defs><g id="a"/><g id="b"><g id="c"><path class="e" d="M116.6,50.9c-7.9,0-14.4,6.2-14.9,14.1h0c0,5.8-4.7,10.5-10.5,10.5s-10.5-4.7-10.5-10.5h0c-.3-5-3.1-9.4-7.1-11.9,4.3-2.6,7.1-7.3,7.1-12.7s-2.7-9.8-6.7-12.4c4.5-2.6,7.6-7.4,7.6-13,0-8.2-6.7-14.9-14.9-14.9s-14.9,6.7-14.9,14.9,6.2,14.4,14,14.9h0c5.8,0,10.5,4.8,10.5,10.6s-4.7,10.5-10.5,10.5-10.1,2.9-12.7,7.1c-2.6-4.3-7.3-7.1-12.7-7.1s-10.1,2.9-12.7,7.1c-2.6-4.3-7.3-7.1-12.7-7.1-8.2,0-14.9,6.7-14.9,14.9s6.7,14.9,14.9,14.9,14.9-6.7,14.9-14.9h0c0-5.8,4.7-10.5,10.5-10.5s10.5,4.7,10.5,10.5h0c0,5.4,2.9,10.1,7.1,12.7-4.3,2.6-7.1,7.3-7.1,12.7s2.9,10.1,7.1,12.7c-4.3,2.6-7.1,7.3-7.1,12.7,0,8.2,6.7,14.9,14.9,14.9s14.9-6.7,14.9-14.9-6.7-14.9-14.9-14.9-10.5-4.7-10.5-10.5,4.7-10.5,10.5-10.5,10.4-3.1,13-7.6c2.7,4,7.3,6.7,12.5,6.7s9.8-2.7,12.5-6.7c2.6,4.5,7.4,7.6,13,7.6,8.2,0,14.9-6.7,14.9-14.9s-6.7-14.9-14.9-14.9M56.2,14.9c0-5.8,4.7-10.5,10.5-10.5s10.5,4.7,10.5,10.5-4.7,10.5-10.5,10.5-10.5-4.7-10.5-10.5M14.9,76.3c-5.8,0-10.5-4.7-10.5-10.5s4.7-10.5,10.5-10.5,10.5,4.7,10.5,10.5h0c0,5.8-4.7,10.5-10.5,10.5m61.4,40.4c0,5.8-4.7,10.5-10.5,10.5s-10.5-4.7-10.5-10.5,4.7-10.5,10.5-10.5,10.5,4.7,10.5,10.5m-10.5-40.4c-5.8,0-10.5-4.7-10.5-10.5h0c0-5.8,4.7-10.5,10.5-10.5s10.5,4.7,10.5,10.5-4.7,10.5-10.5,10.5m50.9,0c-5.8,0-10.5-4.7-10.5-10.5s4.7-10.5,10.5-10.5,10.5,4.7,10.5,10.5-4.7,10.5-10.5,10.5"/></g></g></svg>