<svg width="132" height="132" viewBox="0 0 132 132" fill="none" xmlns="http://www.w3.org/2000/svg">
<g clip-path="url(#clip0_472_156)">
<path d="M116.6 50.8996C108.7 50.8996 102.2 57.0996 101.7 64.9996C101.7 70.7996 97.0001 75.4996 91.2001 75.4996C85.4001 75.4996 80.7001 70.7996 80.7001 64.9996C80.4001 59.9996 77.6001 55.5996 73.6001 53.0996C77.9001 50.4996 80.7001 45.7996 80.7001 40.3996C80.7001 34.9996 78.0001 30.5996 74.0001 27.9996C78.5001 25.3996 81.6001 20.5996 81.6001 14.9996C81.6001 6.79961 74.9001 0.0996094 66.7001 0.0996094C58.5001 0.0996094 51.8001 6.79961 51.8001 14.9996C51.8001 23.1996 58.0001 29.3996 65.8001 29.8996C71.6001 29.8996 76.3001 34.6996 76.3001 40.4996C76.3001 46.2996 71.6001 50.9996 65.8001 50.9996C60.0001 50.9996 55.7001 53.8996 53.1001 58.0996C50.5001 53.7996 45.8001 50.9996 40.4001 50.9996C35.0001 50.9996 30.3001 53.8996 27.7001 58.0996C25.1001 53.7996 20.4001 50.9996 15.0001 50.9996C6.8001 50.9996 0.100098 57.6996 0.100098 65.8996C0.100098 74.0996 6.8001 80.7996 15.0001 80.7996C23.2001 80.7996 29.9001 74.0996 29.9001 65.8996C29.9001 60.0996 34.6001 55.3996 40.4001 55.3996C46.2001 55.3996 50.9001 60.0996 50.9001 65.8996C50.9001 71.2996 53.8001 75.9996 58.0001 78.5996C53.7001 81.1996 50.9001 85.8996 50.9001 91.2996C50.9001 96.6996 53.8001 101.4 58.0001 104C53.7001 106.6 50.9001 111.3 50.9001 116.7C50.9001 124.9 57.6001 131.6 65.8001 131.6C74.0001 131.6 80.7001 124.9 80.7001 116.7C80.7001 108.5 74.0001 101.8 65.8001 101.8C57.6001 101.8 55.3001 97.0996 55.3001 91.2996C55.3001 85.4996 60.0001 80.7996 65.8001 80.7996C71.6001 80.7996 76.2001 77.6996 78.8001 73.1996C81.5001 77.1996 86.1001 79.8996 91.3001 79.8996C96.5001 79.8996 101.1 77.1996 103.8 73.1996C106.4 77.6996 111.2 80.7996 116.8 80.7996C125 80.7996 131.7 74.0996 131.7 65.8996C131.7 57.6996 125 50.9996 116.8 50.9996M56.2001 14.8996C56.2001 9.09961 60.9001 4.39961 66.7001 4.39961C72.5001 4.39961 77.2001 9.09961 77.2001 14.8996C77.2001 20.6996 72.5001 25.3996 66.7001 25.3996C60.9001 25.3996 56.2001 20.6996 56.2001 14.8996ZM14.9001 76.2996C9.1001 76.2996 4.4001 71.5996 4.4001 65.7996C4.4001 59.9996 9.1001 55.2996 14.9001 55.2996C20.7001 55.2996 25.4001 59.9996 25.4001 65.7996C25.4001 71.5996 20.7001 76.2996 14.9001 76.2996ZM76.3001 116.7C76.3001 122.5 71.6001 127.2 65.8001 127.2C60.0001 127.2 55.3001 122.5 55.3001 116.7C55.3001 110.9 60.0001 106.2 65.8001 106.2C71.6001 106.2 76.3001 110.9 76.3001 116.7ZM65.8001 76.2996C60.0001 76.2996 55.3001 71.5996 55.3001 65.7996C55.3001 59.9996 60.0001 55.2996 65.8001 55.2996C71.6001 55.2996 76.3001 59.9996 76.3001 65.7996C76.3001 71.5996 71.6001 76.2996 65.8001 76.2996ZM116.7 76.2996C110.9 76.2996 106.2 71.5996 106.2 65.7996C106.2 59.9996 110.9 55.2996 116.7 55.2996C122.5 55.2996 127.2 59.9996 127.2 65.7996C127.2 71.5996 122.5 76.2996 116.7 76.2996Z" fill="url(#paint0_linear_472_156)"/>
</g>
<defs>
<linearGradient id="paint0_linear_472_156" x1="9.7662e-05" y1="65.7996" x2="131.6" y2="65.7996" gradientUnits="userSpaceOnUse">
<stop stop-color="#B7E972"/>
<stop offset="0.770833" stop-color="#00ADEE"/>
</linearGradient>
<clipPath id="clip0_472_156">
<rect width="131.6" height="131.6" fill="white"/>
</clipPath>
</defs>
</svg>
