<?xml version="1.0" encoding="UTF-8"?><svg xmlns="http://www.w3.org/2000/svg" viewBox="0 0 226.8 226.8"><defs><style>.d{fill:#c48b28;opacity:.2;}</style></defs><g id="a"/><g id="b"><g id="c"><path class="d" d="M113.4,46.1c-37.1,0-67.3,30.2-67.3,67.3s30.2,67.3,67.3,67.3,67.3-30.2,67.3-67.3-30.2-67.3-67.3-67.3Zm-47.4,67.3c0-26.1,21.3-47.4,47.4-47.4s47.4,21.3,47.4,47.4-21.3,47.4-47.4,47.4-47.4-21.3-47.4-47.4Z"/><path class="d" d="M113.4,0C50.9,0,0,50.9,0,113.4s50.9,113.4,113.4,113.4,113.4-50.9,113.4-113.4S175.9,0,113.4,0ZM33.6,113.4c0-44,35.8-79.8,79.8-79.8s79.8,35.8,79.8,79.8-35.8,79.8-79.8,79.8S33.6,157.4,33.6,113.4Z"/></g></g></svg>