<?xml version="1.0" encoding="UTF-8"?><svg xmlns="http://www.w3.org/2000/svg" viewBox="0 0 335.5 379.1"><defs><style>.d,.e,.f{font-family:VarelaRound, Varela Round;}.d,.g,.h{font-size:20px;}.i{letter-spacing:0em;}.j{letter-spacing:0em;}.k{fill:#1c3854;}.g{font-family:MyriadPro-Regular, Myriad Pro;}.l{letter-spacing:0em;}.m{fill:#c48b28;}.n{letter-spacing:0em;}.f{font-size:14px;}.o{letter-spacing:0em;}.p{letter-spacing:0em;}.q{letter-spacing:0em;}.r{font-size:18px;}</style></defs><g id="a"/><g id="b"><g id="c"><g><path class="m" d="M69.1,30.1c-4.7,0-8.6,3.7-8.8,8.3h0c0,3.4-2.8,6.2-6.2,6.2s-6.2-2.8-6.2-6.2h0c-.2-3-1.8-5.6-4.2-7,2.5-1.6,4.2-4.3,4.2-7.5s-1.6-5.8-4-7.4c2.7-1.5,4.5-4.4,4.5-7.7,0-4.9-4-8.8-8.8-8.8s-8.8,4-8.8,8.8,3.7,8.5,8.3,8.8h0c3.4,0,6.2,2.8,6.2,6.3s-2.8,6.2-6.2,6.2-6,1.7-7.5,4.2c-1.6-2.5-4.3-4.2-7.5-4.2s-6,1.7-7.5,4.2c-1.6-2.5-4.3-4.2-7.5-4.2-4.9,0-8.8,4-8.8,8.8s4,8.8,8.8,8.8,8.8-4,8.8-8.8,2.8-6.2,6.2-6.2,6.2,2.8,6.2,6.2h0c0,3.2,1.7,6,4.2,7.5-2.5,1.6-4.2,4.3-4.2,7.5s1.7,6,4.2,7.5c-2.5,1.6-4.2,4.3-4.2,7.5,0,4.9,4,8.8,8.8,8.8s8.8-4,8.8-8.8-4-8.8-8.8-8.8-6.2-2.8-6.2-6.2,2.8-6.2,6.2-6.2,6.2-1.8,7.7-4.5c1.6,2.4,4.3,4,7.4,4s5.8-1.6,7.4-4c1.5,2.7,4.4,4.5,7.7,4.5,4.9,0,8.8-4,8.8-8.8s-4-8.8-8.8-8.8ZM33.3,8.8c0-3.4,2.8-6.2,6.2-6.2s6.2,2.8,6.2,6.2-2.8,6.2-6.2,6.2-6.2-2.8-6.2-6.2ZM8.8,45.2c-3.4,0-6.2-2.8-6.2-6.2s2.8-6.2,6.2-6.2,6.2,2.8,6.2,6.2-2.8,6.2-6.2,6.2Zm36.4,23.9c0,3.4-2.8,6.2-6.2,6.2s-6.2-2.8-6.2-6.2,2.8-6.2,6.2-6.2,6.2,2.8,6.2,6.2Zm-6.2-23.9c-3.4,0-6.2-2.8-6.2-6.2s2.8-6.2,6.2-6.2,6.2,2.8,6.2,6.2-2.8,6.2-6.2,6.2Zm30.1,0c-3.4,0-6.2-2.8-6.2-6.2s2.8-6.2,6.2-6.2,6.2,2.8,6.2,6.2-2.8,6.2-6.2,6.2Z"/><text class="k" transform="translate(0 259.5)"><tspan class="g"><tspan class="o" x="0" y="0">E</tspan><tspan class="i" x="9.8" y="0">c</tspan><tspan x="18.6" y="0">osis</tspan><tspan class="n" x="50.1" y="0">t</tspan><tspan class="j" x="56.6" y="0">emas inn</tspan><tspan class="l" x="132" y="0">o</tspan><tspan class="p" x="142.8" y="0">v</tspan><tspan x="152.4" y="0">ado</tspan><tspan class="q" x="184.3" y="0">r</tspan><tspan x="190.6" y="0">es de salud</tspan></tspan><tspan class="d"><tspan x="0" y="26">8 y 9 de noviembre de 2023</tspan></tspan><tspan class="e"><tspan class="h" x="0" y="50">Vigo</tspan><tspan class="r" x="43.8" y="50"> </tspan></tspan><tspan class="f"><tspan x="0" y="108.8" xml:space="preserve">LongeVIDAD       BIOTECH</tspan><tspan x="182.8" y="108.8" xml:space="preserve">       ONEHEALTH       IA</tspan></tspan></text><g><path class="k" d="M.2,135.4c0,0-.1-.2-.1-.4v-6.9c0-.1,0-.3,.1-.4,0-.1,.2-.2,.4-.2H3.2c1,0,1.8,.2,2.3,.6,.5,.4,.8,1,.8,1.7s-.1,.9-.4,1.2c-.3,.4-.6,.6-1.1,.8,.5,.1,.9,.5,1.1,1,.2,.5,.3,1,.3,1.6v.5c0,.1,0,.3-.1,.4,0,0-.2,.1-.4,.1s-.3,0-.4-.1c0,0-.1-.2-.1-.4v-.3c0-.4,0-.7-.1-1,0-.3-.2-.6-.5-.9-.3-.3-.6-.4-1.2-.4H1.1v2.6c0,.1,0,.3-.2,.4,0,0-.2,.1-.4,.1s-.3,0-.4-.1Zm2.9-3.9c.6,0,1.2-.1,1.5-.4,.4-.3,.6-.6,.6-1.1s-.2-.8-.5-1c-.3-.2-.9-.4-1.7-.4H1.1v2.9H3.1Z"/><path class="k" d="M8.3,134.9c-.5-.5-.8-1.3-.8-2.2s0-1,.3-1.5c.2-.5,.5-.8,.9-1.1,.4-.3,.9-.4,1.5-.4s1,.1,1.4,.4c.4,.3,.7,.6,.9,1,.2,.4,.3,.9,.3,1.4s0,.3-.1,.4c0,0-.2,.1-.4,.1h-3.8c0,.5,.3,.9,.6,1.2,.3,.3,.8,.4,1.4,.4s.6,0,.8,0c.2,0,.5-.1,.7-.3,0,0,.1,0,.2,0,.1,0,.2,0,.3,.1,0,0,.1,.2,.1,.3s0,.3-.3,.4c-.3,.2-.6,.3-.9,.4-.3,0-.6,.1-1.1,.1-.9,0-1.6-.3-2.1-.8Zm3.6-2.7c0-.4-.1-.7-.3-.9-.2-.2-.4-.4-.6-.5-.3-.1-.5-.2-.8-.2s-.5,0-.7,.2c-.3,.1-.5,.3-.6,.5-.2,.2-.3,.6-.3,.9h3.3Z"/><path class="k" d="M14.6,134.1v-3.5h-.8c0,0-.1,0-.2,0,0,0,0,0,0-.1s0-.1,0-.2l1.5-1.5c0,0,.1-.1,.2-.1s.1,0,.1,0c0,0,0,0,0,.2v.9h1.3c.1,0,.2,0,.3,.1,0,0,.1,.2,.1,.3s0,.2-.1,.3c0,0-.2,.1-.3,.1h-1.3v3.4c0,.3,0,.5,.2,.6,.1,0,.3,.1,.5,.1s.3,0,.5,0c0,0,0,0,0,0,0,0,0,0,.1,0,.1,0,.2,0,.3,.1,0,0,.1,.2,.1,.3,0,.2,0,.3-.3,.4-.3,.1-.6,.2-.9,.2-1.1,0-1.6-.5-1.6-1.5Z"/><path class="k" d="M19.4,135.3c-.4-.2-.8-.6-1-1.1-.2-.5-.4-1-.4-1.6s.1-1.1,.4-1.6c.2-.5,.6-.8,1-1.1,.4-.2,.9-.4,1.5-.4s1.1,.1,1.5,.4c.4,.2,.8,.6,1,1.1,.2,.5,.4,1,.4,1.6s-.1,1.1-.4,1.6c-.2,.5-.6,.8-1,1.1-.4,.2-.9,.4-1.5,.4s-1.1-.1-1.5-.4Zm2.4-.8c.3-.1,.5-.4,.7-.7,.2-.3,.3-.7,.3-1.2s0-.9-.3-1.2c-.2-.3-.4-.5-.7-.7-.3-.1-.6-.2-.9-.2s-.6,0-.9,.2c-.3,.1-.5,.4-.7,.7-.2,.3-.3,.7-.3,1.2s0,.9,.3,1.2c.2,.3,.4,.5,.7,.7,.3,.1,.6,.2,.9,.2s.6,0,.9-.2Z"/><path class="k" d="M25.1,135.1c-.1,0-.2-.2-.2-.4s0-.2,.1-.3c0,0,.2-.1,.3-.1s.1,0,.2,0c.2,.1,.5,.2,.7,.2,.2,0,.5,0,.8,0,.8,0,1.2-.3,1.2-.8s0-.3-.3-.4c-.2,0-.5-.2-.9-.3-.4-.1-.8-.2-1.1-.3-.3-.1-.5-.3-.7-.5-.2-.2-.3-.5-.3-.9s.2-1,.6-1.3c.4-.3,.9-.5,1.6-.5s1.1,0,1.6,.3c.1,0,.2,0,.2,.2,0,0,0,.2,0,.3s0,.2-.1,.3c0,0-.2,.1-.3,.1s0,0-.1,0c-.4-.1-.9-.2-1.3-.2s-.7,0-1,.2c-.2,.1-.3,.3-.3,.6s.1,.4,.3,.5c.2,.1,.5,.2,1,.3,.4,.1,.8,.2,1.1,.3,.3,.1,.5,.3,.7,.5,.2,.2,.3,.5,.3,.9s-.2,.9-.6,1.2c-.4,.3-.9,.5-1.6,.5s-1.4-.2-2-.5Z"/><path class="k" d="M33.9,135.4c0,0-.1-.2-.1-.4v-6.9c0-.1,0-.3,.1-.4,0-.1,.2-.2,.4-.2s.3,0,.4,.2c.1,.1,.2,.2,.2,.4v6.9c0,.1,0,.3-.2,.4-.1,0-.2,.1-.4,.1s-.3,0-.4-.1Z"/><path class="k" d="M36.8,135.4c0,0-.1-.2-.1-.4v-4.8c0-.1,0-.3,.1-.4,0,0,.2-.2,.4-.2s.3,0,.4,.2c0,.1,.2,.2,.2,.4v.5c.3-.3,.6-.6,.9-.8,.3-.2,.7-.3,1.2-.3s.8,0,1.1,.3c.3,.2,.5,.5,.7,.8,.2,.3,.2,.7,.2,1.1v3.2c0,.1,0,.3-.2,.4,0,0-.2,.1-.4,.1s-.3,0-.4-.1c0,0-.1-.2-.1-.4v-3.1c0-.9-.4-1.4-1.2-1.4s-.7,0-1,.3c-.3,.2-.6,.5-.8,.8v3.4c0,.1,0,.3-.2,.4-.1,0-.2,.1-.4,.1s-.3,0-.4-.1Z"/><path class="k" d="M43.7,134.1v-3.5h-.8c0,0-.1,0-.2,0,0,0,0,0,0-.1s0-.1,.1-.2l1.5-1.5c0,0,.1-.1,.2-.1s.1,0,.2,0c0,0,0,0,0,.2v.9h1.3c.1,0,.2,0,.3,.1,0,0,.1,.2,.1,.3s0,.2-.1,.3c0,0-.2,.1-.3,.1h-1.3v3.4c0,.3,0,.5,.2,.6,.1,0,.3,.1,.5,.1s.3,0,.5,0c0,0,0,0,0,0,0,0,0,0,.1,0,.1,0,.2,0,.3,.1,0,0,.1,.2,.1,.3,0,.2,0,.3-.3,.4-.3,.1-.6,.2-.9,.2-1.1,0-1.6-.5-1.6-1.5Z"/><path class="k" d="M48,134.9c-.5-.5-.8-1.3-.8-2.2s0-1,.3-1.5c.2-.5,.5-.8,.9-1.1,.4-.3,.9-.4,1.5-.4s1,.1,1.4,.4c.4,.3,.7,.6,.9,1,.2,.4,.3,.9,.3,1.4s0,.3-.1,.4c0,0-.2,.1-.4,.1h-3.8c0,.5,.3,.9,.6,1.2,.3,.3,.8,.4,1.4,.4s.6,0,.8,0c.2,0,.5-.1,.7-.3,0,0,.1,0,.2,0,.1,0,.2,0,.3,.1,0,0,.1,.2,.1,.3s0,.3-.3,.4c-.3,.2-.6,.3-.9,.4-.3,0-.7,.1-1.1,.1-.9,0-1.6-.3-2.1-.8Zm3.6-2.7c0-.4-.1-.7-.3-.9-.2-.2-.4-.4-.6-.5-.2-.1-.5-.2-.8-.2s-.5,0-.8,.2c-.3,.1-.5,.3-.6,.5-.2,.2-.3,.6-.3,.9h3.3Z"/><path class="k" d="M54.1,135.4c0,0-.1-.2-.1-.4v-4.8c0-.1,0-.3,.1-.4,0,0,.2-.2,.4-.2s.3,0,.4,.2c.1,.1,.2,.2,.2,.4v.5c.5-.7,1.1-1.1,1.8-1.1h0c.1,0,.3,0,.4,.1,0,0,.1,.2,.1,.4s0,.3-.1,.3c0,0-.2,.1-.4,.1h0c-.4,0-.7,0-1,.3-.3,.2-.6,.4-.8,.7v3.4c0,.1,0,.3-.2,.4,0,0-.2,.1-.4,.1s-.3,0-.4-.1Z"/><path class="k" d="M58.4,135.4c0,0-.1-.2-.1-.4v-4.8c0-.1,0-.3,.1-.4,.1,0,.2-.2,.4-.2s.3,0,.4,.2c0,.1,.2,.2,.2,.4v.5c.3-.3,.6-.6,.9-.8,.3-.2,.7-.3,1.2-.3s.8,0,1.1,.3c.3,.2,.5,.5,.7,.8,.2,.3,.2,.7,.2,1.1v3.2c0,.1,0,.3-.2,.4-.1,0-.2,.1-.4,.1s-.3,0-.4-.1c0,0-.1-.2-.1-.4v-3.1c0-.9-.4-1.4-1.2-1.4s-.7,0-1,.3c-.3,.2-.6,.5-.8,.8v3.4c0,.1,0,.3-.2,.4-.1,0-.2,.1-.4,.1s-.3,0-.4-.1Z"/><path class="k" d="M65.6,135.4c-.3-.1-.5-.3-.7-.6-.2-.3-.2-.6-.2-.9,0-.6,.2-1,.7-1.3,.4-.3,1.1-.5,1.9-.5h1.4c0-.6-.1-.9-.4-1.2-.2-.2-.6-.3-1.1-.3s-.5,0-.8,0c-.2,0-.5,.1-.7,.2,0,0-.1,0-.1,0-.1,0-.2,0-.3-.1,0,0-.1-.2-.1-.3,0-.2,0-.3,.3-.4,.6-.3,1.3-.4,1.9-.4s1,.1,1.3,.3c.4,.2,.6,.5,.8,.8,.2,.3,.3,.7,.3,1.1v3.2c0,.1,0,.3-.2,.4,0,0-.2,.1-.4,.1s-.3,0-.4-.1c0,0-.1-.2-.1-.4v-.3c-.6,.6-1.3,.9-2.1,.9s-.6,0-.9-.2Zm2.3-.9c.3-.2,.6-.4,.8-.6v-.9h-1.2c-1.1,0-1.7,.3-1.7,.9s0,.5,.3,.7c.2,.2,.5,.2,.9,.2s.7,0,1-.2Z"/><path class="k" d="M72.6,135.3c-.5-.2-.8-.6-1.1-1-.3-.4-.4-1-.4-1.6s.1-1.1,.4-1.6c.3-.5,.6-.8,1.1-1,.5-.2,1-.4,1.5-.4s.7,0,1,.2c.3,0,.6,.2,.8,.4,.1,0,.2,.2,.2,.4s0,.2-.1,.3c0,0-.2,.1-.3,.1s-.2,0-.2,0c-.3-.1-.5-.2-.6-.3-.2,0-.4,0-.7,0-.6,0-1.1,.2-1.5,.6-.4,.4-.6,.9-.6,1.5s.2,1.1,.6,1.5c.4,.4,.9,.6,1.5,.6s.5,0,.7,0c.2,0,.4-.1,.6-.3,0,0,.2,0,.2,0s.2,0,.3,.1c0,0,.1,.2,.1,.3,0,.2,0,.3-.2,.4-.2,.2-.5,.3-.8,.4-.3,.1-.6,.2-1,.2s-1-.1-1.5-.4Z"/><path class="k" d="M77.5,128.5c-.1-.1-.2-.2-.2-.4h0c0-.2,0-.3,.2-.4,.1-.1,.2-.2,.4-.2h0c.2,0,.3,0,.4,.2,.1,.1,.2,.2,.2,.4h0c0,.2,0,.3-.2,.5-.1,.1-.2,.2-.4,.2h0c-.2,0-.3,0-.4-.2Zm0,7c0,0-.1-.2-.1-.4v-4.8c0-.1,0-.3,.1-.4,0,0,.2-.2,.4-.2s.3,0,.4,.1c0,0,.1,.2,.1,.4v4.8c0,.1,0,.3-.2,.4-.1,0-.2,.1-.4,.1s-.3,0-.4-.1Z"/><path class="k" d="M81.2,135.3c-.4-.2-.8-.6-1-1.1-.2-.5-.4-1-.4-1.6s.1-1.1,.4-1.6c.2-.5,.6-.8,1-1.1,.4-.2,.9-.4,1.5-.4s1.1,.1,1.5,.4c.4,.2,.8,.6,1,1.1,.2,.5,.4,1,.4,1.6s-.1,1.1-.4,1.6c-.2,.5-.6,.8-1,1.1-.4,.2-.9,.4-1.5,.4s-1.1-.1-1.5-.4Zm2.4-.8c.3-.1,.5-.4,.7-.7,.2-.3,.3-.7,.3-1.2s0-.9-.3-1.2c-.2-.3-.4-.5-.7-.7-.3-.1-.6-.2-.9-.2s-.6,0-.9,.2c-.3,.1-.5,.4-.7,.7-.2,.3-.3,.7-.3,1.2s0,.9,.3,1.2c.2,.3,.4,.5,.7,.7,.3,.1,.6,.2,.9,.2s.6,0,.9-.2Z"/><path class="k" d="M87.2,135.4c0,0-.1-.2-.1-.4v-4.8c0-.1,0-.3,.1-.4,0,0,.2-.2,.4-.2s.3,0,.4,.2c.1,.1,.2,.2,.2,.4v.5c.3-.3,.6-.6,.9-.8,.3-.2,.7-.3,1.2-.3s.8,0,1.1,.3c.3,.2,.5,.5,.7,.8,.2,.3,.2,.7,.2,1.1v3.2c0,.1,0,.3-.1,.4-.1,0-.2,.1-.4,.1s-.3,0-.4-.1c0,0-.1-.2-.1-.4v-3.1c0-.9-.4-1.4-1.2-1.4s-.7,0-1,.3c-.3,.2-.6,.5-.8,.8v3.4c0,.1,0,.3-.2,.4-.1,0-.2,.1-.4,.1s-.3,0-.4-.1Z"/><path class="k" d="M94.4,135.4c-.3-.1-.5-.3-.7-.6-.2-.3-.2-.6-.2-.9,0-.6,.2-1,.7-1.3,.4-.3,1.1-.5,1.9-.5h1.4c0-.6-.1-.9-.4-1.2-.2-.2-.6-.3-1.1-.3s-.5,0-.8,0c-.2,0-.5,.1-.7,.2,0,0-.1,0-.1,0-.1,0-.2,0-.3-.1,0,0-.1-.2-.1-.3,0-.2,0-.3,.3-.4,.6-.3,1.3-.4,1.9-.4s1,.1,1.3,.3c.4,.2,.6,.5,.8,.8,.2,.3,.3,.7,.3,1.1v3.2c0,.1,0,.3-.2,.4-.1,0-.2,.1-.4,.1s-.3,0-.4-.1c0,0-.1-.2-.1-.4v-.3c-.6,.6-1.3,.9-2.1,.9s-.6,0-.9-.2Zm2.3-.9c.3-.2,.6-.4,.8-.6v-.9h-1.2c-1.1,0-1.7,.3-1.7,.9s0,.5,.3,.7c.2,.2,.5,.2,.9,.2s.6,0,1-.2Z"/><path class="k" d="M100.3,135.4c0,0-.1-.2-.1-.4v-7.3c0-.1,0-.3,.1-.4,0-.1,.2-.1,.4-.1s.3,0,.4,.1c0,0,.1,.2,.1,.4v7.3c0,.1,0,.3-.2,.4-.1,0-.2,.1-.4,.1s-.3,0-.4-.1Z"/><path class="k" d="M103.4,134.9c-.5-.5-.8-1.3-.8-2.2s0-1,.3-1.5c.2-.5,.5-.8,.9-1.1,.4-.3,.9-.4,1.5-.4s1,.1,1.4,.4c.4,.3,.7,.6,.9,1,.2,.4,.3,.9,.3,1.4s0,.3-.1,.4c0,0-.2,.1-.4,.1h-3.8c0,.5,.3,.9,.6,1.2,.3,.3,.8,.4,1.4,.4s.6,0,.8,0c.2,0,.5-.1,.7-.3,0,0,.1,0,.2,0,.1,0,.2,0,.3,.1,0,0,.1,.2,.1,.3s0,.3-.3,.4c-.3,.2-.6,.3-.9,.4-.3,0-.7,.1-1.1,.1-.9,0-1.6-.3-2.1-.8Zm3.6-2.7c0-.4-.1-.7-.3-.9-.2-.2-.4-.4-.6-.5-.2-.1-.5-.2-.8-.2s-.5,0-.8,.2c-.2,.1-.5,.3-.6,.5-.2,.2-.3,.6-.3,.9h3.3Z"/><path class="k" d="M109.2,135.1c-.1,0-.2-.2-.2-.4s0-.2,.1-.3c0,0,.2-.1,.3-.1s.1,0,.2,0c.2,.1,.5,.2,.7,.2,.2,0,.5,0,.8,0,.8,0,1.2-.3,1.2-.8s0-.3-.3-.4c-.2,0-.5-.2-.9-.3-.4-.1-.8-.2-1.1-.3-.3-.1-.5-.3-.7-.5-.2-.2-.3-.5-.3-.9s.2-1,.6-1.3c.4-.3,.9-.5,1.6-.5s1.1,0,1.6,.3c.1,0,.2,0,.2,.2,0,0,0,.2,0,.3s0,.2-.1,.3c0,0-.2,.1-.3,.1s0,0-.2,0c-.4-.1-.9-.2-1.3-.2s-.7,0-.9,.2c-.2,.1-.3,.3-.3,.6s.1,.4,.3,.5c.2,.1,.5,.2,1,.3,.4,.1,.8,.2,1.1,.3,.3,.1,.5,.3,.7,.5,.2,.2,.3,.5,.3,.9s-.2,.9-.6,1.2c-.4,.3-.9,.5-1.6,.5s-1.4-.2-2-.5Z"/><path class="k" d="M1.4,148.8c-.4-.2-.7-.6-1-1-.3-.5-.4-1-.4-1.6s.1-1.1,.4-1.6c.3-.5,.6-.8,1-1,.4-.2,.9-.4,1.3-.4,.7,0,1.4,.3,1.9,.9v-2.8c0-.2,0-.3,.2-.4,0,0,.2-.1,.4-.1s.3,0,.4,.2c0,.1,.1,.2,.1,.4v7.3c0,.1,0,.3-.1,.4,0,0-.2,.1-.4,.1s-.3,0-.4-.1c-.1,0-.2-.2-.2-.4v-.3c-.5,.6-1.2,.9-1.9,.9s-.9-.1-1.3-.4Zm2.4-.8c.3-.2,.6-.4,.8-.6v-2.4c-.2-.3-.5-.5-.8-.6-.3-.2-.6-.2-1-.2-.6,0-1,.2-1.3,.5-.3,.4-.5,.9-.5,1.5s.2,1.1,.5,1.5c.3,.4,.8,.5,1.3,.5s.7,0,1-.2Z"/><path class="k" d="M7.9,148.3c-.5-.5-.8-1.3-.8-2.2s0-1,.3-1.5c.2-.4,.5-.8,.9-1.1,.4-.3,.9-.4,1.5-.4s1,.1,1.4,.4c.4,.3,.7,.6,.9,1,.2,.4,.3,.9,.3,1.4s0,.3-.1,.4c0,0-.2,.1-.4,.1h-3.8c0,.5,.3,.9,.6,1.2,.3,.3,.8,.4,1.4,.4s.6,0,.8,0c.2,0,.5-.1,.7-.3,0,0,.1,0,.2,0,.1,0,.2,0,.3,.1,0,0,.1,.2,.1,.3s0,.3-.3,.4c-.3,.2-.6,.3-.9,.4-.3,0-.7,.1-1.1,.1-.9,0-1.6-.3-2.1-.8Zm3.6-2.7c0-.4-.1-.7-.3-.9-.2-.2-.4-.4-.6-.5-.2-.1-.5-.2-.8-.2s-.5,0-.8,.2c-.2,.1-.5,.3-.6,.5-.2,.2-.3,.6-.3,.9h3.3Z"/><path class="k" d="M13.9,148.9c0,0-.1-.2-.1-.4v-7.3c0-.1,0-.3,.1-.4,0,0,.2-.2,.4-.2s.3,0,.4,.1c.1,0,.1,.2,.1,.4v7.3c0,.1,0,.3-.1,.4-.1,0-.2,.1-.4,.1s-.3,0-.4-.1Z"/><path class="k" d="M19.9,148.9c0,0-.1-.2-.1-.4v-6.8c0-.1,0-.3,.1-.4,0-.1,.2-.2,.4-.2h4.5c.1,0,.2,0,.3,.1,0,0,.1,.2,.1,.3s0,.2-.1,.3c0,0-.2,.1-.3,.1h-4v2.5h3.6c.1,0,.3,0,.3,.1,0,0,.1,.2,.1,.3s0,.2-.1,.3c0,0-.2,.1-.3,.1h-3.6v2.5h4c.1,0,.2,0,.3,.1,0,0,.1,.2,.1,.3s0,.2-.1,.3c0,0-.2,.1-.3,.1h-4.5c-.1,0-.3,0-.4-.1Z"/><path class="k" d="M27.7,148.8c-.5-.2-.8-.6-1.1-1-.3-.4-.4-1-.4-1.6s.1-1.1,.4-1.6c.3-.4,.6-.8,1.1-1,.5-.2,1-.4,1.5-.4s.7,0,1,.2c.3,0,.6,.2,.8,.4,.1,0,.2,.2,.2,.4s0,.2-.1,.3c0,0-.2,.1-.3,.1s-.2,0-.2,0c-.2-.1-.5-.2-.6-.3-.2,0-.4,0-.7,0-.6,0-1.2,.2-1.5,.6-.4,.4-.6,.9-.6,1.5s.2,1.1,.6,1.5c.4,.4,.9,.6,1.5,.6s.5,0,.7,0c.2,0,.4-.1,.6-.3,0,0,.2,0,.2,0s.2,0,.3,.1c0,0,.1,.2,.1,.3,0,.2,0,.3-.2,.4-.2,.2-.5,.3-.8,.4-.3,.1-.6,.2-1,.2s-1-.1-1.5-.4Z"/><path class="k" d="M33.5,148.7c-.4-.2-.8-.6-1-1.1-.2-.5-.4-1-.4-1.6s.1-1.1,.4-1.6c.2-.5,.6-.8,1-1.1,.4-.2,.9-.4,1.5-.4s1.1,.1,1.5,.4c.4,.2,.8,.6,1,1.1,.2,.5,.4,1,.4,1.6s-.1,1.1-.4,1.6c-.2,.5-.6,.8-1,1.1-.4,.2-.9,.4-1.5,.4s-1.1-.1-1.5-.4Zm2.4-.8c.3-.1,.5-.4,.7-.7,.2-.3,.3-.7,.3-1.2s0-.8-.3-1.2c-.2-.3-.4-.5-.7-.7-.3-.1-.6-.2-.9-.2s-.6,0-.9,.2c-.3,.1-.5,.4-.7,.7-.2,.3-.3,.7-.3,1.2s0,.9,.3,1.2c.2,.3,.4,.5,.7,.7,.3,.1,.6,.2,.9,.2s.6,0,.9-.2Z"/><path class="k" d="M39.1,148.6c-.1,0-.2-.2-.2-.4s0-.2,.1-.3c0,0,.2-.1,.3-.1s.1,0,.2,0c.2,.1,.5,.2,.7,.2,.2,0,.5,0,.8,0,.8,0,1.2-.3,1.2-.8s0-.3-.3-.4c-.2,0-.5-.2-.9-.3-.4-.1-.8-.2-1.1-.3-.3-.1-.5-.3-.7-.5-.2-.2-.3-.5-.3-.9s.2-1,.6-1.3c.4-.3,.9-.5,1.6-.5s1.1,0,1.6,.3c.1,0,.2,0,.2,.2,0,0,0,.2,0,.3s0,.2-.1,.3c0,0-.2,.1-.3,.1s0,0-.1,0c-.4-.1-.9-.2-1.3-.2s-.7,0-.9,.2c-.2,.1-.3,.3-.3,.6s.1,.4,.3,.5c.2,.1,.5,.2,1,.3,.4,.1,.8,.2,1.1,.3,.3,.1,.5,.3,.7,.5,.2,.2,.3,.5,.3,.9s-.2,.9-.6,1.2c-.4,.3-.9,.5-1.6,.5s-1.4-.2-2-.5Z"/><path class="k" d="M44.8,141.9c-.1-.1-.2-.2-.2-.4h0c0-.2,0-.3,.2-.4,.1-.1,.2-.2,.4-.2h0c.2,0,.3,0,.4,.2,.1,.1,.2,.2,.2,.4h0c0,.2,0,.3-.2,.4-.1,.1-.2,.2-.4,.2h0c-.2,0-.3,0-.4-.2Zm0,7c-.1,0-.1-.2-.1-.4v-4.8c0-.1,0-.3,.1-.4,0,0,.2-.2,.4-.2s.3,0,.4,.1c0,0,.1,.2,.1,.4v4.8c0,.1,0,.3-.2,.4,0,0-.2,.1-.4,.1s-.3,0-.4-.1Z"/><path class="k" d="M47.3,148.6c-.1,0-.2-.2-.2-.4s0-.2,.1-.3c0,0,.2-.1,.3-.1s.1,0,.2,0c.2,.1,.5,.2,.7,.2,.2,0,.5,0,.8,0,.8,0,1.2-.3,1.2-.8s0-.3-.3-.4c-.2,0-.5-.2-.9-.3-.4-.1-.8-.2-1.1-.3-.3-.1-.5-.3-.7-.5-.2-.2-.3-.5-.3-.9s.2-1,.6-1.3c.4-.3,.9-.5,1.6-.5s1.1,0,1.6,.3c.1,0,.2,0,.2,.2,0,0,0,.2,0,.3s0,.2-.1,.3c0,0-.2,.1-.3,.1s0,0-.1,0c-.4-.1-.9-.2-1.3-.2s-.7,0-.9,.2c-.2,.1-.3,.3-.3,.6s.1,.4,.3,.5c.2,.1,.5,.2,1,.3,.4,.1,.8,.2,1.1,.3,.3,.1,.5,.3,.7,.5,.2,.2,.3,.5,.3,.9s-.2,.9-.6,1.2c-.4,.3-.9,.5-1.6,.5s-1.4-.2-2-.5Z"/><path class="k" d="M53.2,147.6v-3.5h-.8c0,0-.1,0-.2,0,0,0,0,0,0-.2s0-.1,.1-.2l1.5-1.5c0,0,.1-.1,.2-.1s.1,0,.2,0c0,0,0,.1,0,.2v.9h1.3c.1,0,.2,0,.3,.1,0,0,.1,.2,.1,.3s0,.2-.1,.3c0,0-.2,.1-.3,.1h-1.3v3.4c0,.3,0,.5,.2,.6,.1,0,.3,.1,.5,.1s.3,0,.4,0c0,0,0,0,0,0,0,0,0,0,.1,0,.1,0,.2,0,.3,.1,0,0,.1,.2,.1,.3,0,.2,0,.3-.3,.4-.3,.1-.6,.2-.9,.2-1.1,0-1.6-.5-1.6-1.5Z"/><path class="k" d="M57.5,148.3c-.5-.5-.8-1.3-.8-2.2s0-1,.3-1.5c.2-.4,.5-.8,.9-1.1,.4-.3,.9-.4,1.5-.4s1,.1,1.4,.4c.4,.3,.7,.6,.9,1,.2,.4,.3,.9,.3,1.4s0,.3-.1,.4c0,0-.2,.1-.4,.1h-3.8c0,.5,.3,.9,.6,1.2,.3,.3,.8,.4,1.4,.4s.6,0,.8,0c.2,0,.5-.1,.7-.3,0,0,.1,0,.2,0,.1,0,.2,0,.3,.1,0,0,.1,.2,.1,.3s0,.3-.3,.4c-.3,.2-.6,.3-.9,.4-.3,0-.7,.1-1.1,.1-.9,0-1.6-.3-2.1-.8Zm3.6-2.7c0-.4-.1-.7-.3-.9-.2-.2-.4-.4-.6-.5-.2-.1-.5-.2-.8-.2s-.5,0-.8,.2c-.2,.1-.5,.3-.6,.5-.2,.2-.3,.6-.3,.9h3.3Z"/><path class="k" d="M63.6,148.9c0,0-.1-.2-.1-.4v-4.8c0-.1,0-.3,.1-.4,0,0,.2-.2,.4-.2s.3,0,.4,.2c.1,.1,.2,.2,.2,.4v.5c.2-.3,.5-.5,.8-.7,.3-.2,.7-.3,1.2-.3s.8,.1,1.1,.3c.3,.2,.5,.5,.6,.8,.5-.8,1.2-1.2,2.1-1.2s.8,.1,1.1,.3c.3,.2,.5,.5,.6,.8,.1,.3,.2,.7,.2,1v3.2c0,.1,0,.3-.2,.4-.1,0-.2,.1-.4,.1s-.3,0-.4-.1c0,0-.1-.2-.1-.4v-3c0-.5,0-.8-.3-1.1-.2-.2-.5-.3-.9-.3s-.7,0-.9,.3c-.3,.2-.5,.5-.7,.8v3.4c0,.1,0,.3-.2,.4-.1,0-.2,.1-.4,.1s-.3,0-.4-.1c0,0-.1-.2-.1-.4v-3c0-.5,0-.8-.3-1.1-.2-.2-.5-.3-.9-.3s-.7,0-.9,.3c-.3,.2-.5,.5-.7,.8v3.4c0,.1,0,.3-.2,.4,0,0-.2,.1-.4,.1s-.3,0-.4-.1Z"/><path class="k" d="M74.3,148.9c-.3-.1-.5-.3-.7-.6-.2-.3-.2-.6-.2-.9,0-.6,.2-1,.7-1.3,.4-.3,1.1-.5,1.9-.5h1.4c0-.6-.1-.9-.4-1.2-.2-.2-.6-.3-1.1-.3s-.5,0-.8,0c-.2,0-.5,.1-.7,.2,0,0-.1,0-.1,0-.1,0-.2,0-.3-.1,0,0-.1-.2-.1-.3,0-.2,0-.3,.3-.4,.6-.3,1.3-.4,1.9-.4s1,.1,1.3,.3c.4,.2,.6,.5,.8,.8,.2,.3,.3,.7,.3,1.1v3.2c0,.1,0,.3-.2,.4-.1,0-.2,.1-.4,.1s-.3,0-.4-.1c0,0-.1-.2-.1-.4v-.3c-.6,.6-1.3,.9-2.1,.9s-.6,0-.9-.2Zm2.3-.9c.3-.2,.6-.4,.8-.6v-.9h-1.2c-1.1,0-1.7,.3-1.7,.9s0,.5,.3,.7c.2,.2,.5,.2,.9,.2s.7,0,1-.2Z"/><path class="k" d="M83,148.6c0,0-.2,0-.2-.2,0,0,0-.2,0-.3s0-.2,.1-.3c0,0,.2-.1,.3-.1s.1,0,.2,0c.7,.3,1.4,.5,2.2,.5,1.3,0,2-.4,2-1.3s0-.4-.3-.6c-.2-.2-.4-.3-.6-.4-.2,0-.6-.2-1.1-.3-.6-.2-1.1-.3-1.5-.5-.4-.1-.7-.4-1-.7-.3-.3-.4-.7-.4-1.2s.1-.8,.3-1.2c.2-.3,.6-.6,1-.8,.4-.2,1-.3,1.6-.3s1.6,.1,2.2,.4c.2,0,.3,.2,.3,.4s0,.2-.1,.3c0,0-.2,.1-.3,.1s-.1,0-.2,0c-.6-.2-1.2-.3-1.8-.3s-1.1,.1-1.4,.3c-.4,.2-.6,.5-.6,.9s0,.5,.3,.7c.2,.2,.4,.3,.7,.4,.3,0,.6,.2,1.1,.3,.6,.1,1.1,.3,1.4,.4,.4,.1,.7,.4,.9,.7,.3,.3,.4,.7,.4,1.2s-.1,.8-.4,1.1c-.2,.3-.6,.6-1,.8-.4,.2-.9,.3-1.5,.3-1,0-1.8-.2-2.7-.5Z"/><path class="k" d="M90.5,148.9c-.3-.1-.5-.3-.7-.6-.2-.3-.2-.6-.2-.9,0-.6,.2-1,.7-1.3,.4-.3,1.1-.5,1.9-.5h1.4c0-.6-.1-.9-.4-1.2-.2-.2-.6-.3-1.1-.3s-.5,0-.8,0c-.2,0-.5,.1-.7,.2,0,0-.1,0-.1,0-.1,0-.2,0-.3-.1,0,0-.1-.2-.1-.3,0-.2,0-.3,.3-.4,.6-.3,1.3-.4,1.9-.4s1,.1,1.3,.3c.4,.2,.6,.5,.8,.8,.2,.3,.2,.7,.2,1.1v3.2c0,.1,0,.3-.2,.4,0,0-.2,.1-.4,.1s-.3,0-.4-.1c0,0-.1-.2-.1-.4v-.3c-.6,.6-1.3,.9-2.1,.9s-.6,0-.9-.2Zm2.3-.9c.3-.2,.6-.4,.8-.6v-.9h-1.2c-1.1,0-1.7,.3-1.7,.9s0,.5,.3,.7c.2,.2,.5,.2,.9,.2s.6,0,1-.2Z"/><path class="k" d="M96.4,148.9c0,0-.1-.2-.1-.4v-7.3c0-.1,0-.3,.1-.4,0,0,.2-.2,.4-.2s.3,0,.4,.1c.1,0,.1,.2,.1,.4v7.3c0,.1,0,.3-.2,.4-.1,0-.2,.1-.4,.1s-.3,0-.4-.1Z"/><path class="k" d="M99.9,148.8c-.3-.2-.5-.5-.7-.8-.2-.3-.2-.7-.2-1.1v-3.2c0-.1,0-.3,.1-.4,.1,0,.2-.1,.4-.1s.3,0,.4,.1c0,0,.1,.2,.1,.4v3.1c0,.9,.4,1.4,1.2,1.4s.7,0,1-.3c.3-.2,.6-.5,.8-.8v-3.4c0-.1,0-.3,.2-.4,0,0,.2-.1,.4-.1s.3,0,.4,.1c0,0,.1,.2,.1,.4v4.8c0,.1,0,.3-.1,.4,0,0-.2,.2-.4,.2s-.3,0-.4-.2c-.1-.1-.2-.2-.2-.4v-.5c-.3,.3-.6,.6-.9,.8-.3,.2-.7,.3-1.2,.3s-.8,0-1.1-.3Z"/><path class="k" d="M106.9,148.8c-.4-.2-.8-.6-1-1-.3-.5-.4-1-.4-1.6s.1-1.1,.4-1.6c.3-.5,.6-.8,1-1,.4-.2,.9-.4,1.3-.4,.7,0,1.4,.3,1.9,.9v-2.8c0-.2,0-.3,.1-.4,0,0,.2-.1,.4-.1s.3,0,.4,.2c.1,.1,.1,.2,.1,.4v7.3c0,.1,0,.3-.1,.4,0,0-.2,.1-.4,.1s-.3,0-.4-.1c0,0-.1-.2-.1-.4v-.3c-.6,.6-1.2,.9-1.9,.9s-.9-.1-1.3-.4Zm2.4-.8c.3-.2,.6-.4,.8-.6v-2.4c-.2-.3-.5-.5-.8-.6-.3-.2-.6-.2-1-.2-.6,0-1,.2-1.3,.5-.3,.4-.5,.9-.5,1.5s.2,1.1,.5,1.5c.3,.4,.8,.5,1.3,.5s.7,0,1-.2Z"/></g><g><path class="k" d="M16.3,104.6c.3,0,.5,0,.7,.3,.2,.2,.3,.4,.3,.7v12.4c0,.3,0,.5-.3,.6-.2,.2-.4,.3-.7,.3s-.5,0-.6-.3c-.2-.2-.3-.4-.3-.6v-12.4c0-.3,0-.5,.3-.7,.2-.2,.4-.3,.6-.3Z"/><path class="k" d="M6.5,117l4.7-11.7c.2-.4,.4-.6,.8-.6s.6,0,.7,.3c.2,.2,.2,.4,.2,.6s0,.3,0,.4l-4.9,12c-.3,.6-.7,.9-1.2,.9h-.4c-.5,0-1-.3-1.2-.9L0,105.9c0,0,0-.2,0-.4s0-.4,.2-.6c.2-.2,.4-.3,.6-.3,.4,0,.7,.2,.9,.6l4.7,11.7Z"/><path class="k" d="M41.9,106.4v4.4h6.2c.2,0,.4,0,.6,.3,.2,.2,.2,.4,.2,.6s0,.4-.2,.6c-.2,.2-.4,.2-.6,.2h-6.2v5.3c0,.3,0,.5-.3,.6-.2,.2-.4,.3-.7,.3s-.5,0-.6-.3c-.2-.2-.3-.4-.3-.6v-12.3c0-.3,0-.5,.3-.7,.2-.2,.4-.3,.6-.3h7.8c.2,0,.4,0,.6,.3,.2,.2,.3,.4,.3,.6s0,.4-.3,.6c-.2,.2-.4,.2-.6,.2h-6.9Z"/><path class="k" d="M58.4,104.5c2.1,0,3.8,.7,5.1,2,1.2,1.3,1.9,3,1.9,5.2,0,2.1-.7,3.8-1.9,5.2-1.3,1.3-3,2-5.1,2s-3.8-.7-5.1-2c-1.3-1.3-1.9-3.1-1.9-5.2,0-2.1,.7-3.8,1.9-5.2,1.3-1.3,3-2,5.1-2Zm0,12.7c1.6,0,2.9-.5,3.8-1.6,.9-1,1.4-2.3,1.4-3.9s-.5-2.9-1.4-3.9c-.9-1.1-2.2-1.6-3.8-1.6s-2.9,.5-3.8,1.6c-.9,1-1.4,2.3-1.4,3.9s.5,2.9,1.4,3.9c.9,1.1,2.2,1.6,3.8,1.6Zm.3-16c.1-.3,.3-.4,.6-.4,.5,0,.8,.2,.8,.7s0,.4-.2,.5l-1.4,1.6c-.1,.1-.3,.2-.4,.2s-.3,0-.4-.1c-.1-.1-.2-.2-.2-.3,0-.2,0-.3,.1-.4l1-1.8Z"/><path class="k" d="M79.4,117.9c0,.3,0,.5-.3,.6-.2,.2-.4,.3-.7,.3s-.5,0-.7-.2c-.2-.2-.2-.4-.2-.7v-.6c0-1.1-.1-1.9-.4-2.4-.2-.5-.6-.9-1-1.2-.4-.3-1-.5-1.8-.5h-4.1v4.6c0,.3,0,.5-.3,.6-.2,.2-.4,.3-.7,.3s-.5,0-.6-.3c-.2-.2-.3-.4-.3-.6v-12.3c0-.3,0-.5,.3-.7,.2-.2,.4-.3,.6-.3h4.7c1.8,0,3.2,.4,4.1,1.2,.9,.7,1.3,1.7,1.3,2.9s-.2,1.5-.7,2.2c-.4,.7-1.1,1.2-2,1.5,1,.3,1.7,.9,2.1,2.1,.3,.8,.4,1.6,.4,2.5v.9Zm-5.4-6.4c1.1,0,2-.2,2.7-.7,.7-.4,1-1.1,1-1.9s-.3-1.4-.8-1.8c-.6-.5-1.7-.7-3-.7h-3.5v5.1h3.6Z"/><path class="k" d="M93.2,104.6c.3,0,.5,0,.7,.3,.2,.2,.3,.4,.3,.7v7.9c0,1.7-.6,3.1-1.9,4.1-1.1,.9-2.4,1.3-3.9,1.3s-2.8-.4-3.9-1.3c-1.2-1-1.9-2.4-1.9-4.1v-7.9c0-.3,0-.5,.3-.7,.2-.2,.4-.3,.6-.3s.5,0,.7,.3c.2,.2,.3,.4,.3,.7v8c0,1.2,.4,2.1,1.2,2.8,.7,.6,1.6,.9,2.7,.9s2-.3,2.7-.9c.8-.7,1.2-1.6,1.2-2.8v-8c0-.3,0-.5,.3-.7,.2-.2,.4-.3,.6-.3Z"/><path class="k" d="M113,105c.3,.3,.4,.6,.4,.9v12c0,.3,0,.5-.3,.6-.2,.2-.4,.3-.6,.3s-.5,0-.7-.3c-.2-.2-.3-.4-.3-.6v-11.4l-4.6,11.4c-.1,.3-.3,.5-.5,.6-.2,.2-.5,.2-.8,.2s-.6,0-.8-.2c-.2-.2-.4-.4-.5-.6l-4.6-11.4v11.4c0,.3,0,.5-.3,.6-.2,.2-.4,.3-.7,.3s-.5,0-.6-.3c-.2-.2-.3-.4-.3-.6v-12c0-.4,.1-.7,.4-.9,.3-.3,.6-.4,.9-.4h.7c.3,0,.5,0,.7,.2,.2,.2,.4,.4,.5,.6l4.5,11.3,4.5-11.3c.1-.2,.3-.4,.5-.6,.2-.2,.5-.2,.7-.2h.7c.4,0,.7,.1,.9,.4Z"/><path class="k" d="M21.3,104.6c.3,0,.5,0,.7,.3,.2,.2,.3,.4,.3,.7v12.4c0,.3,0,.5-.3,.6-.2,.2-.4,.3-.7,.3s-.5,0-.6-.3c-.2-.2-.3-.4-.3-.6v-12.4c0-.3,0-.5,.3-.7,.2-.2,.4-.3,.6-.3Z"/><path class="k" d="M26.4,104.6c.3,0,.5,0,.7,.3,.2,.2,.3,.4,.3,.7v12.4c0,.3,0,.5-.3,.6-.2,.2-.4,.3-.7,.3s-.5,0-.6-.3c-.2-.2-.3-.4-.3-.6v-12.4c0-.3,0-.5,.3-.7,.2-.2,.4-.3,.6-.3Z"/></g><rect class="k" x="107" y="350.8" width="1.4" height="28.3"/><g><path class="k" d="M0,220.7c0,1,.8,1.8,1.8,1.8s1.8-.8,1.8-1.8v-8.7c0-1-.8-1.8-1.8-1.8s-1.8,.8-1.8,1.8v8.7Z"/><path class="k" d="M108.2,203.7c-1.2-1.7-2.7-3-4.5-3.8-1.9-.9-4.4-1.7-7.4-2.6-2.4-.7-4.4-1.3-5.8-1.9-1.5-.6-2.8-1.6-3.9-2.7-1.1-1.3-1.7-3-1.7-5,0-3,1.2-5.3,3.4-7,2.1-1.5,4.9-2.3,8.2-2.3s6.7,.7,9.9,2c.4,.2,.6,.2,.6,.2,.4,0,.7-.1,.9-.5,.3-.4,.4-.8,.4-1.2,0-.9-.3-1.3-.9-1.6-3.4-1.5-7.2-2.2-11.4-2.2s-5.7,.6-7.9,1.8c-2.1,1.2-3.7,2.8-4.8,4.7-1.1,1.9-1.6,4.1-1.6,6.5s.6,4.8,1.8,6.4c1.3,1.7,2.9,2.9,4.7,3.8,1.9,.9,4.5,1.8,7.6,2.8,2.4,.8,4.3,1.4,5.6,2,1.4,.6,2.7,1.4,3.6,2.5,1.1,1.2,1.7,2.7,1.7,4.4,0,6.2-3.9,9.6-9.4,9.6H54.3v-12.1s-.2-2.4,3.3-2.2h11s4.9,0,4.9-4h0c0-4.1-4.9-4.1-4.9-4.1h-11c-3.4,.2-3.3-2.2-3.3-2.2v-16.5h24.4c.5,0,.8-.1,1.2-.5,.3-.3,.5-.6,.5-1.1s-.1-.8-.5-1.2c-.3-.3-.7-.5-1.2-.5h-26.2c-.5,0-.9,.2-1.2,.5-.4,.4-.5,.8-.5,1.3v17.9s-.1,3.4,3.2,4.7c0,0,0,0,0,0,.9,.3,2.3,.4,3.6,.4h11s1.3,0,1.3,1.1h0c0,1.1-1.3,1.1-1.3,1.1h-11c-1.3,0-2.8,0-3.6,.4,0,0,0,0,0,0-3.3,1.3-3.2,4.7-3.2,4.7v13.5c0,.5,.2,.9,.5,1.3,.3,.4,.7,.5,1.2,.5h44.6c1.2,0,2.4-.3,3.5-.5,1-.3,1.9-.6,2.8-1.1,2.1-1.1,3.7-2.6,4.9-4.4,1.1-1.8,1.7-4,1.7-6.3s-.6-5.1-1.8-6.7Z"/><path class="k" d="M42.9,180c-.5,0-.8,.1-1.1,.5-.3,.3-.5,.7-.5,1.1v26h0v10h0s0,.7-.4,1.2c0,0-.2,.2-.3,.3-.2,.2-.4,.3-.6,.4-.9,.5-1.6,.3-2.2,0-.2,0-.3-.2-.5-.3-.1,0-.2-.2-.3-.3-.3-.5-.4-1.2-.4-1.2v-5s0-5.4-4.1-7.9c-4.1-2.8-14.8-2.2-14.8-2.2H7.6s-1.4,0-1.4-1.2,1.4-1.1,1.4-1.1h11c6.2,0,10.8-1.1,13.8-3.4,2.9-2.2,4.4-5.1,4.4-8.6v-.9c0-3.6-1.5-6.5-4.4-8.6-3-2.2-7.6-3.4-13.8-3.4H1.8c-.5,0-.9,.2-1.2,.5-.4,.4-.5,.8-.5,1.3H0v12.7c0,.5,.2,.9,.5,1.3,.4,.4,.8,.5,1.3,.5s.9-.2,1.2-.5c.4-.4,.5-.8,.5-1.3v-11.3h14.3c5.4,0,9.1,.8,11.4,2.3,2.4,1.6,3.6,3.9,3.6,6.9s-1.2,5.3-3.6,6.9c-2.3,1.6-6.1,2.3-11.4,2.3H7.6s-5.4,0-5.4,4.3,5.4,4.5,5.4,4.5H24.1s5.7-.2,7.7,2.3h0c.8,1.2,1.6,1.9,1.7,4v5.6s0,2.7,1.6,4.3h0c.2,.2,.9,.7,2,1.1,1,.3,2.3,.5,3.8,0,.6-.2,1.3-.5,2-1h0c1.6-1.6,1.6-4.3,1.6-4.3v-36c0-.4-.1-.8-.5-1.1-.3-.3-.7-.5-1.2-.5"/><path class="k" d="M43,175.2h-.3c-.4,0-.8,.1-1.1,.4-.3,.3-.4,.7-.4,1.1v.2c0,.4,.1,.8,.4,1.1,.3,.3,.7,.4,1.1,.4h.3c.4,0,.8-.1,1.1-.4,.3-.3,.4-.7,.4-1.1v-.2c0-.4-.1-.8-.4-1.1-.3-.3-.7-.4-1.1-.4"/><path class="k" d="M147.2,222.8h-12.3c-10.1,0-15.9-4.4-15.9-12s7.5-10.9,14-13c7.6-2.4,12.2-4.3,12.2-10.6s-1.1-5-3.4-6.4c-4.3-2.7-12-2.4-18.3,.7-.9,.5-2.1,0-2.5-.9-.5-.9,0-2.1,.9-2.5,7.5-3.7,16.6-3.9,21.9-.5,3.4,2.1,5.2,5.4,5.2,9.6,0,9.5-8.3,12.1-14.9,14.2-7.1,2.2-11.4,3.9-11.4,9.4s6.6,8.2,12.1,8.2h12.3c1,0,1.9,.8,1.9,1.9s-.8,1.9-1.9,1.9"/><path class="k" d="M184.3,210.4c0,10.1-9.5,12.6-16,12.6s-10.7-1.1-13.4-2.6-1.8-.7-2-1.8,.9-2.3,2.3-2,1.1,.3,1.4,.5c2.4,.9,6.4,2.3,10.8,2.4s13.4-1.4,13.5-9.1c0-5-3.5-9.8-16.2-9.3h-1.1c-1.6,0-2.8-.7-2.8-2s1.3-2,2.8-2h.4c8.8,0,15.2-2.5,15.2-9,0-5.1-4.2-8.9-11.9-8.7-4.3,.1-7.4,1-10.2,2.2s-1.1,.5-1.4,.5c-1.2,.4-2.2,0-2.5-1.1-.3-.9,.5-1.8,1.4-2.3,3.2-1.7,7.7-3.1,13.4-3.2,9.2-.2,15.2,4.2,15.2,11.9s-4.1,9.9-7.9,11.3c3.2,1.2,9.3,4.1,9.3,11.8Z"/></g><rect class="k" x="194.9" y="350.8" width="1.4" height="28.3"/><rect class="k" x="308.3" y="350.8" width="1.4" height="28.3"/></g></g></g></svg>